mtllib model_0.mtl
o model_0
v -148.04200744628906 0 -132.16099548339844 
v 150.03927612304688 0 -132.16099548339844 
v -148.04200744628906 0 143.47293090820312 
v 150.03927612304688 0 143.47293090820312 
v -89.44196319580078 114.26547241210938 -90.442138671875 
v 91.43923950195312 114.26547241210938 -90.442138671875 
v -116.64176940917969 114.26547241210938 -109.80638885498047 
v 118.63905334472656 114.26547241210938 -109.80638885498047 
v 91.43923950195312 114.26547241210938 101.75407409667969 
v 118.63905334472656 114.26547241210938 121.11832427978516 
v -89.44196319580078 114.26547241210938 101.75407409667969 
v -116.64176940917969 114.26547241210938 121.11832427978516 
v -116.64176940917969 114.26547241210938 -109.80638885498047 
v -89.44196319580078 114.26547241210938 -90.442138671875 
v -116.64176940917969 114.26547241210938 121.11832427978516 
v -89.44196319580078 114.26547241210938 101.75407409667969 
v 91.43923950195312 114.26547241210938 -90.442138671875 
v 91.43923950195312 137.26670837402344 -90.442138671875 
v -89.44196319580078 114.26547241210938 -90.442138671875 
v -89.44196319580078 137.26670837402344 -90.442138671875 
v -89.44196319580078 114.26547241210938 -90.442138671875 
v -89.44196319580078 137.26670837402344 -90.442138671875 
v -89.44196319580078 114.26547241210938 101.75407409667969 
v -89.44196319580078 137.26670837402344 101.75407409667969 
v 91.43923950195312 137.26670837402344 -90.442138671875 
v 67.63933563232422 137.26670837402344 -73.49835968017578 
v -89.44196319580078 137.26670837402344 -90.442138671875 
v -65.64205932617188 137.26670837402344 -73.49835968017578 
v -89.44196319580078 137.26670837402344 -90.442138671875 
v -65.64205932617188 137.26670837402344 -73.49835968017578 
v -89.44196319580078 137.26670837402344 101.75407409667969 
v -65.64205932617188 137.26670837402344 84.81028747558594 
v -116.64176940917969 16.7662353515625 121.11832427978516 
v -116.64176940917969 114.26547241210938 121.11832427978516 
v 118.63905334472656 16.7662353515625 121.11832427978516 
v 118.63905334472656 114.26547241210938 121.11832427978516 
v 118.63905334472656 16.7662353515625 121.11832427978516 
v 118.63905334472656 114.26547241210938 121.11832427978516 
v 118.63905334472656 16.7662353515625 -109.80638885498047 
v 118.63905334472656 114.26547241210938 -109.80638885498047 
v 67.0162124633789 164.45037841796875 -14.8988037109375 
v 56.718135833740234 164.25070190429688 -14.8988037109375 
v 67.0162124633789 164.45037841796875 -43.729366302490234 
v 56.718135833740234 164.25070190429688 -43.729366302490234 
v 91.43923950195312 137.26670837402344 101.75407409667969 
v 67.63933563232422 137.26670837402344 84.81028747558594 
v 91.43923950195312 137.26670837402344 -90.442138671875 
v 67.63933563232422 137.26670837402344 -73.49835968017578 
v 91.43923950195312 114.26547241210938 101.75407409667969 
v 91.43923950195312 137.26670837402344 101.75407409667969 
v 91.43923950195312 114.26547241210938 -90.442138671875 
v 91.43923950195312 137.26670837402344 -90.442138671875 
v -89.44196319580078 114.26547241210938 101.75407409667969 
v -89.44196319580078 137.26670837402344 101.75407409667969 
v 91.43923950195312 114.26547241210938 101.75407409667969 
v 91.43923950195312 137.26670837402344 101.75407409667969 
v -89.44196319580078 137.26670837402344 101.75407409667969 
v -65.64205932617188 137.26670837402344 84.81028747558594 
v 91.43923950195312 137.26670837402344 101.75407409667969 
v 67.63933563232422 137.26670837402344 84.81028747558594 
v 67.0162124633789 164.45037841796875 49.245635986328125 
v 56.718135833740234 164.25070190429688 49.245635986328125 
v 67.0162124633789 164.45037841796875 20.41507339477539 
v 56.718135833740234 164.25070190429688 20.41507339477539 
v 67.63933563232422 137.26670837402344 -73.49835968017578 
v 62.05393981933594 380.8891906738281 -69.52225494384766 
v -65.64205932617188 137.26670837402344 -73.49835968017578 
v -60.056663513183594 380.8891906738281 -69.52225494384766 
v -65.64205932617188 137.26670837402344 -73.49835968017578 
v -60.056663513183594 380.8891906738281 -69.52225494384766 
v -65.64205932617188 137.26670837402344 84.81028747558594 
v -60.056663513183594 380.8891906738281 80.83418273925781 
v 67.0162124633789 164.45037841796875 -43.729366302490234 
v 56.718135833740234 164.25070190429688 -43.729366302490234 
v 48.63853073120117 966.1100463867188 -43.729366302490234 
v 42.97637939453125 966.0005493164062 -43.729366302490234 
v 56.718135833740234 164.25070190429688 -14.8988037109375 
v 42.97637939453125 966.0005493164062 -14.8988037109375 
v 56.718135833740234 164.25070190429688 -43.729366302490234 
v 42.97637939453125 966.0005493164062 -43.729366302490234 
v 48.63853073120117 966.1100463867188 -14.8988037109375 
v 42.97637939453125 966.0005493164062 -14.8988037109375 
v 67.0162124633789 164.45037841796875 -14.8988037109375 
v 56.718135833740234 164.25070190429688 -14.8988037109375 
v 67.0162124633789 164.45037841796875 20.41507339477539 
v 56.718135833740234 164.25070190429688 20.41507339477539 
v 48.63853073120117 966.1100463867188 20.41507339477539 
v 42.97637939453125 966.0005493164062 20.41507339477539 
v 56.718135833740234 164.25070190429688 49.245635986328125 
v 42.97637939453125 966.0005493164062 49.245635986328125 
v 56.718135833740234 164.25070190429688 20.41507339477539 
v 42.97637939453125 966.0005493164062 20.41507339477539 
v -65.64205932617188 137.26670837402344 84.81028747558594 
v -60.056663513183594 380.8891906738281 80.83418273925781 
v 67.63933563232422 137.26670837402344 84.81028747558594 
v 62.05393981933594 380.8891906738281 80.83418273925781 
v 48.63853073120117 966.1100463867188 49.245635986328125 
v 42.97637939453125 966.0005493164062 49.245635986328125 
v 67.0162124633789 164.45037841796875 49.245635986328125 
v 56.718135833740234 164.25070190429688 49.245635986328125 
v 48.63853073120117 966.1100463867188 -43.729366302490234 
v 42.97637939453125 966.0005493164062 -43.729366302490234 
v 48.63853073120117 966.1100463867188 -14.8988037109375 
v 42.97637939453125 966.0005493164062 -14.8988037109375 
v 48.63853073120117 966.1100463867188 20.41507339477539 
v 42.97637939453125 966.0005493164062 20.41507339477539 
v 48.63853073120117 966.1100463867188 49.245635986328125 
v 42.97637939453125 966.0005493164062 49.245635986328125 
v 0.358171284198761 1125.6651611328125 5.655701637268066 
v -45.04193115234375 1035.865234375 -58.83256530761719 
v 1.6391054391860962 1125.6651611328125 5.655701637268066 
v 47.039207458496094 1035.865234375 -58.83256530761719 
v -59.62513732910156 399.7337646484375 -69.2146987915039 
v 61.622413635253906 399.7337646484375 -69.2146987915039 
v 0.358171284198761 1125.6651611328125 5.656227111816406 
v 0.358171284198761 1125.6651611328125 5.655701637268066 
v -45.04193115234375 1035.865234375 70.14449310302734 
v -45.04193115234375 1035.865234375 -58.83256530761719 
v -59.62513732910156 399.7337646484375 80.5266342163086 
v -59.62513732910156 399.7337646484375 -69.2146987915039 
v 1.6391054391860962 1125.6651611328125 5.655701637268066 
v 1.6391054391860962 1125.6651611328125 5.656227111816406 
v 47.039207458496094 1035.865234375 -58.83256530761719 
v 47.039207458496094 1035.865234375 70.14449310302734 
v 48.63853073120117 966.1100463867188 49.245635986328125 
v 61.622413635253906 399.7337646484375 80.5266342163086 
v 62.05393981933594 380.8891906738281 80.83418273925781 
v 58.57557678222656 384.4747619628906 92.07694244384766 
v 58.29926300048828 396.5174865722656 91.88031768798828 
v 67.0162124633789 164.45037841796875 49.245635986328125 
v 67.63933563232422 137.26670837402344 84.81028747558594 
v 67.63933563232422 137.26670837402344 -73.49835968017578 
v 67.0162124633789 164.45037841796875 20.41507339477539 
v 67.0162124633789 164.45037841796875 -14.8988037109375 
v 67.0162124633789 164.45037841796875 -43.729366302490234 
v 62.05393981933594 380.8891906738281 -69.52225494384766 
v 48.63853073120117 966.1100463867188 -43.729366302490234 
v 61.622413635253906 399.7337646484375 -69.2146987915039 
v 48.63853073120117 966.1100463867188 -14.8988037109375 
v 48.63853073120117 966.1100463867188 20.41507339477539 
v 58.57557678222656 384.4747619628906 -80.7650146484375 
v 58.29926300048828 396.5174865722656 -80.56838989257812 
v 1.6391054391860962 1125.6651611328125 5.656227111816406 
v 0.358171284198761 1125.6651611328125 5.656227111816406 
v 47.039207458496094 1035.865234375 70.14449310302734 
v -45.04193115234375 1035.865234375 70.14449310302734 
v 61.622413635253906 399.7337646484375 80.5266342163086 
v -59.62513732910156 399.7337646484375 80.5266342163086 
v 0.358171284198761 1125.6651611328125 5.656227111816406 
v 1.6391054391860962 1125.6651611328125 5.656227111816406 
v 0.358171284198761 1125.6651611328125 5.655701637268066 
v 1.6391054391860962 1125.6651611328125 5.655701637268066 
v 118.63905334472656 16.7662353515625 -109.80638885498047 
v -116.64176940917969 16.7662353515625 -109.80638885498047 
v 118.63905334472656 114.26547241210938 -109.80638885498047 
v -116.64176940917969 114.26547241210938 -109.80638885498047 
v -116.64176940917969 16.7662353515625 -109.80638885498047 
v -116.64176940917969 16.7662353515625 121.11832427978516 
v -116.64176940917969 114.26547241210938 -109.80638885498047 
v -116.64176940917969 114.26547241210938 121.11832427978516 
v 148.56617736816406 15.293365478515625 141.9998321533203 
v 145.00991821289062 16.7662353515625 138.44378662109375 
v -146.5688934326172 15.293365478515625 141.9998321533203 
v -143.0126495361328 16.7662353515625 138.44378662109375 
v 148.56617736816406 15.293365478515625 141.9998321533203 
v 145.00991821289062 16.7662353515625 -127.1318588256836 
v 148.56617736816406 15.293365478515625 -130.68789672851562 
v 148.56617736816406 15.293365478515625 -130.68789672851562 
v -143.0126495361328 16.7662353515625 -127.1318588256836 
v -146.5688934326172 15.293365478515625 -130.68789672851562 
v -143.0126495361328 16.7662353515625 -127.1318588256836 
v -146.5688934326172 15.293365478515625 -130.68789672851562 
v -146.5688934326172 15.293365478515625 141.9998321533203 
v -146.5688934326172 15.293365478515625 141.9998321533203 
v -148.04200744628906 11.73572063446045 143.47293090820312 
v 148.56617736816406 15.293365478515625 141.9998321533203 
v 150.03927612304688 11.73572063446045 143.47293090820312 
v 150.03927612304688 0 143.47293090820312 
v -148.04200744628906 0 143.47293090820312 
v 145.00991821289062 16.7662353515625 138.44378662109375 
v -116.64176940917969 16.7662353515625 121.11832427978516 
v -143.0126495361328 16.7662353515625 138.44378662109375 
v -116.64176940917969 16.7662353515625 -109.80638885498047 
v -143.0126495361328 16.7662353515625 -127.1318588256836 
v 118.63905334472656 16.7662353515625 -109.80638885498047 
v 145.00991821289062 16.7662353515625 -127.1318588256836 
v 118.63905334472656 16.7662353515625 121.11832427978516 
v 150.03927612304688 0 143.47293090820312 
v 150.03927612304688 0 -132.16099548339844 
v 150.03927612304688 11.73572063446045 143.47293090820312 
v 150.03927612304688 11.73572063446045 -132.16099548339844 
v 148.56617736816406 15.293365478515625 -130.68789672851562 
v 148.56617736816406 15.293365478515625 141.9998321533203 
v 150.03927612304688 0 -132.16099548339844 
v 150.03927612304688 11.73572063446045 -132.16099548339844 
v -148.04200744628906 0 -132.16099548339844 
v -148.04200744628906 11.73572063446045 -132.16099548339844 
v -146.5688934326172 15.293365478515625 -130.68789672851562 
v 148.56617736816406 15.293365478515625 -130.68789672851562 
v -148.04200744628906 0 -132.16099548339844 
v -148.04200744628906 11.73572063446045 -132.16099548339844 
v -148.04200744628906 0 143.47293090820312 
v -148.04200744628906 11.73572063446045 143.47293090820312 
v -146.5688934326172 15.293365478515625 141.9998321533203 
v -146.5688934326172 15.293365478515625 -130.68789672851562 
v -71.31103515625 384.7323913574219 92.10060119628906 
v -70.95682525634766 396.77728271484375 91.8482437133789 
v 58.57557678222656 384.4747619628906 92.07694244384766 
v 58.29926300048828 396.5174865722656 91.88031768798828 
v -71.31103515625 384.7323913574219 -80.7886734008789 
v -70.95682525634766 396.77728271484375 -80.53631591796875 
v -71.31103515625 384.7323913574219 92.10060119628906 
v -70.95682525634766 396.77728271484375 91.8482437133789 
v 58.57557678222656 384.4747619628906 -80.7650146484375 
v 58.29926300048828 396.5174865722656 -80.56838989257812 
v -71.31103515625 384.7323913574219 -80.7886734008789 
v -70.95682525634766 396.77728271484375 -80.53631591796875 
v 62.05393981933594 380.8891906738281 80.83418273925781 
v -60.056663513183594 380.8891906738281 80.83418273925781 
v 58.57557678222656 384.4747619628906 92.07694244384766 
v -71.31103515625 384.7323913574219 92.10060119628906 
v -71.31103515625 384.7323913574219 -80.7886734008789 
v -60.056663513183594 380.8891906738281 -69.52225494384766 
v 61.622413635253906 399.7337646484375 80.5266342163086 
v 58.29926300048828 396.5174865722656 91.88031768798828 
v -59.62513732910156 399.7337646484375 80.5266342163086 
v -70.95682525634766 396.77728271484375 91.8482437133789 
v -59.62513732910156 399.7337646484375 -69.2146987915039 
v -70.95682525634766 396.77728271484375 -80.53631591796875 
v 62.05393981933594 380.8891906738281 -69.52225494384766 
v 58.57557678222656 384.4747619628906 -80.7650146484375 
v -60.056663513183594 380.8891906738281 -69.52225494384766 
v -71.31103515625 384.7323913574219 -80.7886734008789 
v 61.622413635253906 399.7337646484375 -69.2146987915039 
v -59.62513732910156 399.7337646484375 -69.2146987915039 
v 58.29926300048828 396.5174865722656 -80.56838989257812 
v -70.95682525634766 396.77728271484375 -80.53631591796875 
vn 3.097898456858039e-13 -0.999997615814209 0.002184694167226553 
vn 3.097898456858039e-13 -0.999997615814209 0.002184694167226553 
vn 3.097898456858039e-13 -0.999997615814209 0.002184694167226553 
vn 3.097898456858039e-13 -0.999997615814209 0.002184694167226553 
vn -1.0341130485562108e-13 0.999997615814209 0.002184694167226553 
vn -1.0341130485562108e-13 0.999997615814209 -0.002184694167226553 
vn -1.0341130485562108e-13 0.999997615814209 -0.002184694167226553 
vn -1.0341130485562108e-13 0.999997615814209 -0.002184694167226553 
vn -1.0341130485562108e-13 0.999997615814209 0.002184694167226553 
vn -1.0341130485562108e-13 0.999997615814209 0.002184694167226553 
vn -1.0341130485562108e-13 0.999997615814209 0.002184694167226553 
vn -1.0341130485562108e-13 0.999997615814209 0.002184694167226553 
vn -1.0341130485562108e-13 0.999997615814209 -0.002184694167226553 
vn -1.0341130485562108e-13 0.999997615814209 0.002184694167226553 
vn -1.0341130485562108e-13 0.999997615814209 0.002184694167226553 
vn -1.0341130485562108e-13 0.999997615814209 0.002184694167226553 
vn -2.0682311115474694e-13 0 -1 
vn -2.0682311115474694e-13 0 -1 
vn -2.0682311115474694e-13 0 -1 
vn -2.0682311115474694e-13 0 -1 
vn -0.999997615814209 -2.0682260971124217e-13 0.002184694167226553 
vn -0.999997615814209 -2.0682260971124217e-13 0.002184694167226553 
vn -0.999997615814209 -2.0682260971124217e-13 0.002184694167226553 
vn -0.999997615814209 -2.0682260971124217e-13 0.002184694167226553 
vn -1.0341130485562108e-13 0.999997615814209 -0.002184694167226553 
vn -1.0341130485562108e-13 0.999997615814209 -0.002184694167226553 
vn -1.0341130485562108e-13 0.999997615814209 0.002184694167226553 
vn -1.0341130485562108e-13 0.999997615814209 0.002184694167226553 
vn -1.0341130485562108e-13 0.999997615814209 0.002184694167226553 
vn -1.0341130485562108e-13 0.999997615814209 0.002184694167226553 
vn -1.0341130485562108e-13 0.999997615814209 0.002184694167226553 
vn -1.0341130485562108e-13 0.999997615814209 0.002184694167226553 
vn 0 0 1 
vn 0 0 1 
vn 0 0 1 
vn 0 0 1 
vn 0.999997615814209 0 0.002184694167226553 
vn 0.999997615814209 0 0.002184694167226553 
vn 0.999997615814209 0 0.002184694167226553 
vn 0.999997615814209 0 0.002184694167226553 
vn -0.022653724998235703 0.9997409582138062 0.002184694167226553 
vn -0.022653724998235703 0.9997409582138062 0.002184694167226553 
vn -0.022653724998235703 0.9997409582138062 0.002184694167226553 
vn -0.022653724998235703 0.9997409582138062 0.002184694167226553 
vn -1.0341130485562108e-13 0.999997615814209 -0.002184694167226553 
vn -1.0341130485562108e-13 0.999997615814209 -0.002184694167226553 
vn -1.0341130485562108e-13 0.999997615814209 -0.002184694167226553 
vn -1.0341130485562108e-13 0.999997615814209 -0.002184694167226553 
vn 0.999997615814209 0 0.002184694167226553 
vn 0.999997615814209 0 0.002184694167226553 
vn 0.999997615814209 0 0.002184694167226553 
vn 0.999997615814209 0 0.002184694167226553 
vn 0 0 1 
vn 0 0 1 
vn 0 0 1 
vn 0 0 1 
vn -1.0341130485562108e-13 0.999997615814209 0.002184694167226553 
vn -1.0341130485562108e-13 0.999997615814209 0.002184694167226553 
vn -1.0341130485562108e-13 0.999997615814209 -0.002184694167226553 
vn -1.0341130485562108e-13 0.999997615814209 -0.002184694167226553 
vn -0.022653724998235703 0.9997409582138062 0.002184694167226553 
vn -0.022653724998235703 0.9997409582138062 0.002184694167226553 
vn -0.022653724998235703 0.9997409582138062 0.002184694167226553 
vn -0.022653724998235703 0.9997409582138062 0.002184694167226553 
vn 0.0038889264687895775 0.01703849993646145 -0.9998472929000854 
vn 0.0038889264687895775 0.01703849993646145 -0.9998472929000854 
vn 0.0038889264687895775 0.01703849993646145 -0.9998472929000854 
vn 0.0038889264687895775 0.01703849993646145 -0.9998472929000854 
vn -0.9997409582138062 0.022653724998235703 0.002184694167226553 
vn -0.9997409582138062 0.022653724998235703 0.002184694167226553 
vn -0.9997409582138062 0.022653724998235703 0.002184694167226553 
vn -0.9997409582138062 0.022653724998235703 0.002184694167226553 
vn 0 0 1 
vn 0 0 1 
vn 0 0 1 
vn 0 0 1 
vn 0.9998835325241089 0.015103200450539589 0.002184694167226553 
vn 0.9998835325241089 0.015103200450539589 0.002184694167226553 
vn 0.9998835325241089 0.015103200450539589 0.002184694167226553 
vn 0.9998835325241089 0.015103200450539589 0.002184694167226553 
vn -2.0682311115474694e-13 0 -1 
vn -2.0682311115474694e-13 0 -1 
vn -2.0682311115474694e-13 0 -1 
vn -2.0682311115474694e-13 0 -1 
vn 0 0 1 
vn 0 0 1 
vn 0 0 1 
vn 0 0 1 
vn 0.9998835325241089 0.015103200450539589 0.002184694167226553 
vn 0.9998835325241089 0.015103200450539589 0.002184694167226553 
vn 0.9998835325241089 0.015103200450539589 0.002184694167226553 
vn 0.9998835325241089 0.015103200450539589 0.002184694167226553 
vn -1.8072902708757407e-15 0.017476677894592285 0.9998472929000854 
vn -1.8072902708757407e-15 0.017476677894592285 0.9998472929000854 
vn -1.8072902708757407e-15 0.017476677894592285 0.9998472929000854 
vn -1.8072902708757407e-15 0.017476677894592285 0.9998472929000854 
vn 2.0682311115474694e-13 4.2775797696334704e-26 -1 
vn 2.0682311115474694e-13 4.2775797696334704e-26 -1 
vn 2.0682311115474694e-13 4.2775797696334704e-26 -1 
vn -2.0682311115474694e-13 0 -1 
vn 0.022653724998235703 -0.9997409582138062 0.002184694167226553 
vn 0.022653724998235703 -0.9997409582138062 0.002184694167226553 
vn 0.022653724998235703 -0.9997409582138062 0.002184694167226553 
vn 0.022653724998235703 -0.9997409582138062 0.002184694167226553 
vn 0.022653724998235703 -0.9997409582138062 0.002184694167226553 
vn 0.022653724998235703 -0.9997409582138062 0.002184694167226553 
vn 0.022653724998235703 -0.9997409582138062 0.002184694167226553 
vn 0.022653724998235703 -0.9997409582138062 0.002184694167226553 
vn 0.003781221341341734 0.5849415063858032 -0.8110666871070862 
vn 0.0018875952810049057 0.08290162682533264 -0.9965559244155884 
vn 0.003781221341341734 0.5849415063858032 -0.8110666871070862 
vn 0.001898496993817389 0.07854505628347397 -0.9969087839126587 
vn 0.0038889264687895775 0.01703849993646145 -0.9998472929000854 
vn 0.0038889264687895775 0.01703849993646145 -0.9998472929000854 
vn -0.8923717141151428 0.4512958228588104 0.002184694167226553 
vn -0.8923717141151428 0.4512958228588104 0.002184694167226553 
vn -0.998173177242279 0.06037835404276848 0.002184694167226553 
vn -0.998173177242279 0.06037835404276848 0.002184694167226553 
vn -0.9997409582138062 0.022653724998235703 0.002184694167226553 
vn -0.9997409582138062 0.022653724998235703 0.002184694167226553 
vn 0.8923717141151428 0.4512958228588104 0.002184694167226553 
vn 0.8923717141151428 0.4512958228588104 0.002184694167226553 
vn 0.9591029286384583 0.283049076795578 0.002184694167226553 
vn 0.9744431972503662 0.22462347149848938 -0.002184694167226553 
vn 0.9997409582138062 0.022653724998235703 -0.002184694167226553 
vn 0.9992066025733948 0.022641615942120552 0.03276457265019417 
vn 0.9997409582138062 0.022653724998235703 0.002184694167226553 
vn 0.9576071500778198 0.030169490724802017 0.2864931523799896 
vn 0.9576071500778198 0.030169490724802017 0.2864931523799896 
vn 0.9997409582138062 0.022653724998235703 -0.002184694167226553 
vn 0.9997409582138062 0.022653724998235703 -0.002184694167226553 
vn 0.9997409582138062 0.022653724998235703 0.002184694167226553 
vn 0.9997409582138062 0.022653724998235703 0.002184694167226553 
vn 0.9997409582138062 0.022653724998235703 0.002184694167226553 
vn 0.9997409582138062 0.022653724998235703 0.002184694167226553 
vn 0.9997409582138062 0.022653724998235703 -0.002184694167226553 
vn 0.9997409582138062 0.022653724998235703 0.002184694167226553 
vn 0.9986907839775085 0.02265716902911663 -0.04586252197623253 
vn 0.9997409582138062 0.022653724998235703 0.002184694167226553 
vn 0.9997409582138062 0.022653724998235703 0.002184694167226553 
vn 0.9576059579849243 0.030207332223653793 -0.2864931523799896 
vn 0.9576059579849243 0.030207332223653793 -0.2864931523799896 
vn -6.049097312464669e-14 0.5849537253379822 0.8110666871070862 
vn -6.049097312464669e-14 0.5849537253379822 0.8110666871070862 
vn 0.003720331471413374 0.08283961564302444 0.9965559244155884 
vn -0.0018418359104543924 0.07854640483856201 0.9969087839126587 
vn -1.8072902708757407e-15 0.017476677894592285 0.9998472929000854 
vn -1.8072902708757407e-15 0.017476677894592285 0.9998472929000854 
vn -1.0341130485562108e-13 0.999997615814209 0.002184694167226553 
vn -1.0341130485562108e-13 0.999997615814209 0.002184694167226553 
vn -1.0341130485562108e-13 0.999997615814209 0.002184694167226553 
vn -1.0341130485562108e-13 0.999997615814209 0.002184694167226553 
vn -2.0682311115474694e-13 0 -1 
vn -2.0682311115474694e-13 0 -1 
vn -2.0682311115474694e-13 0 -1 
vn -2.0682311115474694e-13 0 -1 
vn -0.999997615814209 -2.0682260971124217e-13 0.002184694167226553 
vn -0.999997615814209 -2.0682260971124217e-13 0.002184694167226553 
vn -0.999997615814209 -2.0682260971124217e-13 0.002184694167226553 
vn -0.999997615814209 -2.0682260971124217e-13 0.002184694167226553 
vn 0.0037719623651355505 0.9244976043701172 0.3811691105365753 
vn 0.06413444131612778 0.9953382015228271 0.07203252613544464 
vn 0.0037719623651355505 0.9244976043701172 0.3811691105365753 
vn -0.06413444131612778 0.9953382015228271 0.07203252613544464 
vn 0.38268253207206726 0.9238772988319397 0.002184694167226553 
vn 0.06413444131612778 0.9953382015228271 -0.07203252613544464 
vn 0.38268253207206726 0.9238772988319397 0.002184694167226553 
vn 0.0018884376622736454 0.9245033860206604 -0.3811691105365753 
vn -0.06413444131612778 0.9953382015228271 -0.07203252613544464 
vn 0.0018884376622736454 0.9245033860206604 -0.3811691105365753 
vn -0.06413444131612778 0.9953382015228271 -0.07203252613544464 
vn -0.38268253207206726 0.9238772988319397 0.002184694167226553 
vn -0.38268253207206726 0.9238772988319397 0.002184694167226553 
vn -3.962606474504013e-14 0.3831879794597626 0.9236704111099243 
vn -0.0018418359104543924 0.07854640483856201 0.9969087839126587 
vn -3.962606474504013e-14 0.3831879794597626 0.9236704111099243 
vn -0.0018418359104543924 0.07854640483856201 0.9969087839126587 
vn 0 0 1 
vn 0 0 1 
vn 0.06413444131612778 0.9953382015228271 0.07203252613544464 
vn -1.0341130485562108e-13 0.999997615814209 -0.002184694167226553 
vn -0.06413444131612778 0.9953382015228271 0.07203252613544464 
vn -1.0341130485562108e-13 0.999997615814209 0.002184694167226553 
vn -0.06413444131612778 0.9953382015228271 -0.07203252613544464 
vn -1.0341130485562108e-13 0.999997615814209 0.002184694167226553 
vn 0.06413444131612778 0.9953382015228271 -0.07203252613544464 
vn -1.0341130485562108e-13 0.999997615814209 0.002184694167226553 
vn 0.999997615814209 0 0.002184694167226553 
vn 0.999997615814209 0 0.002184694167226553 
vn 0.9971474409103394 0.07544711232185364 0.002184694167226553 
vn 0.9971474409103394 0.07544711232185364 0.002184694167226553 
vn 0.9238772988319397 0.38268253207206726 0.002184694167226553 
vn 0.9238772988319397 0.38268253207206726 0.002184694167226553 
vn -2.0682311115474694e-13 0 -1 
vn 0.001898496993817389 0.07854505628347397 -0.9969087839126587 
vn -2.0682311115474694e-13 0 -1 
vn 0.001898496993817389 0.07854505628347397 -0.9969087839126587 
vn 0.0037855375558137894 0.3831692636013031 -0.9236704111099243 
vn 0.0037855375558137894 0.3831692636013031 -0.9236704111099243 
vn -0.999997615814209 -2.0682260971124217e-13 0.002184694167226553 
vn -0.9971474409103394 0.07544711232185364 0.002184694167226553 
vn -0.999997615814209 -2.0682260971124217e-13 0.002184694167226553 
vn -0.9971474409103394 0.07544711232185364 0.002184694167226553 
vn -0.9238772988319397 0.38268253207206726 0.002184694167226553 
vn -0.9238772988319397 0.38268253207206726 0.002184694167226553 
vn -2.259048305272007e-15 0.021845221519470215 0.9997613430023193 
vn -2.259048305272007e-15 0.021845221519470215 0.9997613430023193 
vn -1.8072902708757407e-15 0.017476677894592285 0.9998472929000854 
vn -1.8072902708757407e-15 0.017476677894592285 0.9998472929000854 
vn -0.9995414018630981 0.0302029550075531 0.002184694167226553 
vn -0.9995414018630981 0.0302029550075531 0.002184694167226553 
vn -0.9995414018630981 0.0302029550075531 0.002184694167226553 
vn -0.9995414018630981 0.0302029550075531 0.002184694167226553 
vn 0.0038889264687895775 0.01703849993646145 -0.9998472929000854 
vn 0.0038889264687895775 0.01703849993646145 -0.9998472929000854 
vn -0.0037933827843517065 0.02151334285736084 -0.9997613430023193 
vn -0.0037933827843517065 0.02151334285736084 -0.9997613430023193 
vn 0.0018875868991017342 -0.9529271721839905 0.30319350957870483 
vn -0.18757088482379913 -0.9720014929771423 0.1415284425020218 
vn 0.0018875868991017342 -0.9529271721839905 0.30319350957870483 
vn -0.18757088482379913 -0.9720014929771423 0.1415284425020218 
vn -0.1819930374622345 -0.9717645645141602 -0.15017375349998474 
vn -0.1819930374622345 -0.9717645645141602 -0.15017375349998474 
vn 0.0018860433483496308 0.9617534279823303 0.27391019463539124 
vn 0.0037720282562077045 0.9629355072975159 0.26970529556274414 
vn -0.1392497569322586 0.9829754829406738 0.11986933648586273 
vn -0.1392497569322586 0.9829754829406738 0.11986933648586273 
vn -0.14482861757278442 0.9831895232200623 -0.1111890971660614 
vn -0.14482861757278442 0.9831895232200623 -0.1111890971660614 
vn 0.0018875868991017342 -0.9529271721839905 -0.30319350957870483 
vn 0.0018875868991017342 -0.9529271721839905 -0.30319350957870483 
vn -0.1819930374622345 -0.9717645645141602 -0.15017375349998474 
vn -0.1819930374622345 -0.9717645645141602 -0.15017375349998474 
vn -9.945660966884443e-14 0.9617552757263184 -0.27391019463539124 
vn -0.14482861757278442 0.9831895232200623 -0.1111890971660614 
vn 0.0018883723532781005 0.96294105052948 -0.26970529556274414 
vn -0.14482861757278442 0.9831895232200623 -0.1111890971660614 
s on 
f 1//1 2//2 3//3 
f 2//2 4//4 3//3 
f 3//3 4//4 4//4 
f 4//4 5//5 4//4 
f 4//4 5//5 5//5 
f 5//5 6//6 5//5 
f 5//5 6//6 7//7 
f 6//6 6//6 7//7 
f 7//7 6//6 8//8 
f 6//6 9//9 8//8 
f 8//8 9//9 10//10 
f 9//9 11//11 10//10 
f 10//10 11//11 12//12 
f 11//11 12//12 12//12 
f 12//12 12//12 13//13 
f 12//12 13//13 13//13 
f 13//13 13//13 14//14 
f 13//13 15//15 14//14 
f 14//14 15//15 16//16 
f 15//15 16//16 16//16 
f 16//16 16//16 17//17 
f 16//16 17//17 17//17 
f 17//17 17//17 18//18 
f 17//17 19//19 18//18 
f 18//18 19//19 20//20 
f 19//19 20//20 20//20 
f 20//20 20//20 21//21 
f 20//20 21//21 21//21 
f 21//21 21//21 22//22 
f 21//21 23//23 22//22 
f 22//22 23//23 24//24 
f 23//23 24//24 24//24 
f 24//24 24//24 25//25 
f 24//24 25//25 25//25 
f 25//25 25//25 26//26 
f 25//25 27//27 26//26 
f 26//26 27//27 28//28 
f 27//27 28//28 28//28 
f 28//28 28//28 29//29 
f 28//28 29//29 29//29 
f 29//29 29//29 30//30 
f 29//29 31//31 30//30 
f 30//30 31//31 32//32 
f 31//31 32//32 32//32 
f 32//32 32//32 33//33 
f 32//32 33//33 33//33 
f 33//33 33//33 34//34 
f 33//33 35//35 34//34 
f 34//34 35//35 36//36 
f 35//35 36//36 36//36 
f 36//36 36//36 37//37 
f 36//36 37//37 37//37 
f 37//37 37//37 38//38 
f 37//37 39//39 38//38 
f 38//38 39//39 40//40 
f 39//39 40//40 40//40 
f 40//40 40//40 41//41 
f 40//40 41//41 41//41 
f 41//41 41//41 42//42 
f 41//41 43//43 42//42 
f 42//42 43//43 44//44 
f 43//43 44//44 44//44 
f 44//44 44//44 45//45 
f 44//44 45//45 45//45 
f 45//45 45//45 46//46 
f 45//45 47//47 46//46 
f 46//46 47//47 48//48 
f 47//47 48//48 48//48 
f 48//48 48//48 49//49 
f 48//48 49//49 49//49 
f 49//49 49//49 50//50 
f 49//49 51//51 50//50 
f 50//50 51//51 52//52 
f 51//51 52//52 52//52 
f 52//52 52//52 53//53 
f 52//52 53//53 53//53 
f 53//53 53//53 54//54 
f 53//53 55//55 54//54 
f 54//54 55//55 56//56 
f 55//55 56//56 56//56 
f 56//56 56//56 57//57 
f 56//56 57//57 57//57 
f 57//57 57//57 58//58 
f 57//57 59//59 58//58 
f 58//58 59//59 60//60 
f 59//59 60//60 60//60 
f 60//60 60//60 61//61 
f 60//60 61//61 61//61 
f 61//61 61//61 62//62 
f 61//61 63//63 62//62 
f 62//62 63//63 64//64 
f 63//63 64//64 64//64 
f 64//64 64//64 65//65 
f 64//64 65//65 65//65 
f 65//65 65//65 66//66 
f 65//65 67//67 66//66 
f 66//66 67//67 68//68 
f 67//67 68//68 68//68 
f 68//68 68//68 69//69 
f 68//68 69//69 69//69 
f 69//69 69//69 70//70 
f 69//69 71//71 70//70 
f 70//70 71//71 72//72 
f 71//71 72//72 72//72 
f 72//72 72//72 73//73 
f 72//72 73//73 73//73 
f 73//73 73//73 74//74 
f 73//73 75//75 74//74 
f 74//74 75//75 76//76 
f 75//75 76//76 76//76 
f 76//76 76//76 77//77 
f 76//76 77//77 77//77 
f 77//77 77//77 78//78 
f 77//77 79//79 78//78 
f 78//78 79//79 80//80 
f 79//79 80//80 80//80 
f 80//80 80//80 81//81 
f 80//80 81//81 81//81 
f 81//81 81//81 82//82 
f 81//81 83//83 82//82 
f 82//82 83//83 84//84 
f 83//83 84//84 84//84 
f 84//84 84//84 85//85 
f 84//84 85//85 85//85 
f 85//85 85//85 86//86 
f 85//85 87//87 86//86 
f 86//86 87//87 88//88 
f 87//87 88//88 88//88 
f 88//88 88//88 89//89 
f 88//88 89//89 89//89 
f 89//89 89//89 90//90 
f 89//89 91//91 90//90 
f 90//90 91//91 92//92 
f 91//91 92//92 92//92 
f 92//92 92//92 93//93 
f 92//92 93//93 93//93 
f 93//93 93//93 94//94 
f 93//93 95//95 94//94 
f 94//94 95//95 96//96 
f 95//95 96//96 96//96 
f 96//96 96//96 97//97 
f 96//96 97//97 97//97 
f 97//97 97//97 98//98 
f 97//97 99//99 98//98 
f 98//98 99//99 100//100 
f 99//99 100//100 100//100 
f 100//100 100//100 101//101 
f 100//100 101//101 101//101 
f 101//101 101//101 102//102 
f 101//101 103//103 102//102 
f 102//102 103//103 104//104 
f 103//103 104//104 104//104 
f 104//104 104//104 105//105 
f 104//104 105//105 105//105 
f 105//105 105//105 106//106 
f 105//105 107//107 106//106 
f 106//106 107//107 108//108 
f 107//107 108//108 108//108 
f 108//108 108//108 109//109 
f 108//108 109//109 109//109 
f 109//109 109//109 110//110 
f 109//109 111//111 110//110 
f 110//110 111//111 110//110 
f 111//111 112//112 110//110 
f 110//110 112//112 113//113 
f 112//112 114//114 113//113 
f 113//113 114//114 114//114 
f 114//114 115//115 114//114 
f 114//114 115//115 115//115 
f 115//115 116//116 115//115 
f 115//115 116//116 117//117 
f 116//116 118//118 117//117 
f 117//117 118//118 119//119 
f 118//118 120//120 119//119 
f 119//119 120//120 120//120 
f 120//120 121//121 120//120 
f 120//120 121//121 121//121 
f 121//121 122//122 121//121 
f 121//121 122//122 123//123 
f 122//122 124//124 123//123 
f 123//123 124//124 125//125 
f 124//124 126//126 125//125 
f 125//125 126//126 127//127 
f 126//126 126//126 127//127 
f 127//127 126//126 128//128 
f 126//126 129//129 128//128 
f 128//128 129//129 129//129 
f 129//129 125//125 129//129 
f 129//129 125//125 125//125 
f 125//125 127//127 125//125 
f 125//125 127//127 130//130 
f 127//127 131//131 130//130 
f 130//130 131//131 130//130 
f 131//131 132//132 130//130 
f 130//130 132//132 133//133 
f 132//132 132//132 133//133 
f 133//133 132//132 134//134 
f 132//132 132//132 134//134 
f 134//134 132//132 135//135 
f 132//132 136//136 135//135 
f 135//135 136//136 137//137 
f 136//136 138//138 137//137 
f 137//137 138//138 137//137 
f 138//138 123//123 137//137 
f 137//137 123//123 139//139 
f 123//123 140//140 139//139 
f 139//139 140//140 139//139 
f 140//140 133//133 139//139 
f 139//139 133//133 134//134 
f 133//133 134//134 134//134 
f 134//134 134//134 136//136 
f 134//134 136//136 136//136 
f 136//136 136//136 138//138 
f 136//136 141//141 138//138 
f 138//138 141//141 142//142 
f 141//141 142//142 142//142 
f 142//142 142//142 125//125 
f 142//142 125//125 125//125 
f 125//125 125//125 123//123 
f 125//125 140//140 123//123 
f 123//123 140//140 140//140 
f 140//140 143//143 140//140 
f 140//140 143//143 143//143 
f 143//143 144//144 143//143 
f 143//143 144//144 145//145 
f 144//144 146//146 145//145 
f 145//145 146//146 147//147 
f 146//146 148//148 147//147 
f 147//147 148//148 148//148 
f 148//148 149//149 148//148 
f 148//148 149//149 149//149 
f 149//149 150//150 149//149 
f 149//149 150//150 151//151 
f 150//150 152//152 151//151 
f 151//151 152//152 152//152 
f 152//152 153//153 152//152 
f 152//152 153//153 153//153 
f 153//153 154//154 153//153 
f 153//153 154//154 155//155 
f 154//154 156//156 155//155 
f 155//155 156//156 156//156 
f 156//156 157//157 156//156 
f 156//156 157//157 157//157 
f 157//157 158//158 157//157 
f 157//157 158//158 159//159 
f 158//158 160//160 159//159 
f 159//159 160//160 160//160 
f 160//160 161//161 160//160 
f 160//160 161//161 161//161 
f 161//161 162//162 161//161 
f 161//161 162//162 163//163 
f 162//162 164//164 163//163 
f 163//163 164//164 164//164 
f 164//164 162//162 164//164 
f 164//164 162//162 162//162 
f 162//162 165//165 162//162 
f 162//162 165//165 166//166 
f 165//165 167//167 166//166 
f 166//166 167//167 167//167 
f 167//167 166//166 167//167 
f 167//167 166//166 166//166 
f 166//166 168//168 166//166 
f 166//166 168//168 169//169 
f 168//168 170//170 169//169 
f 169//169 170//170 170//170 
f 170//170 171//171 170//170 
f 170//170 171//171 171//171 
f 171//171 172//172 171//171 
f 171//171 172//172 164//164 
f 172//172 173//173 164//164 
f 164//164 173//173 173//173 
f 173//173 174//174 173//173 
f 173//173 174//174 174//174 
f 174//174 175//175 174//174 
f 174//174 175//175 176//176 
f 175//175 175//175 176//176 
f 176//176 175//175 177//177 
f 175//175 175//175 177//177 
f 177//177 175//175 178//178 
f 175//175 179//179 178//178 
f 178//178 179//179 179//179 
f 179//179 180//180 179//179 
f 179//179 180//180 180//180 
f 180//180 181//181 180//180 
f 180//180 181//181 182//182 
f 181//181 183//183 182//182 
f 182//182 183//183 184//184 
f 183//183 185//185 184//184 
f 184//184 185//185 186//186 
f 185//185 187//187 186//186 
f 186//186 187//187 180//180 
f 187//187 181//181 180//180 
f 180//180 181//181 181//181 
f 181//181 188//188 181//181 
f 181//181 188//188 188//188 
f 188//188 189//189 188//188 
f 188//188 189//189 190//190 
f 189//189 191//191 190//190 
f 190//190 191//191 190//190 
f 191//191 192//192 190//190 
f 190//190 192//192 193//193 
f 192//192 193//193 193//193 
f 193//193 193//193 194//194 
f 193//193 194//194 194//194 
f 194//194 194//194 195//195 
f 194//194 196//196 195//195 
f 195//195 196//196 195//195 
f 196//196 197//197 195//195 
f 195//195 197//197 195//195 
f 197//197 198//198 195//195 
f 195//195 198//198 199//199 
f 198//198 199//199 199//199 
f 199//199 199//199 200//200 
f 199//199 200//200 200//200 
f 200//200 200//200 201//201 
f 200//200 202//202 201//201 
f 201//201 202//202 201//201 
f 202//202 203//203 201//201 
f 201//201 203//203 201//201 
f 203//203 204//204 201//201 
f 201//201 204//204 205//205 
f 204//204 205//205 205//205 
f 205//205 205//205 206//206 
f 205//205 206//206 206//206 
f 206//206 206//206 207//207 
f 206//206 208//208 207//207 
f 207//207 208//208 209//209 
f 208//208 209//209 209//209 
f 209//209 209//209 210//210 
f 209//209 210//210 210//210 
f 210//210 210//210 211//211 
f 210//210 212//212 211//211 
f 211//211 212//212 213//213 
f 212//212 213//213 213//213 
f 213//213 213//213 214//214 
f 213//213 214//214 214//214 
f 214//214 214//214 215//215 
f 214//214 216//216 215//215 
f 215//215 216//216 217//217 
f 216//216 217//217 217//217 
f 217//217 217//217 218//218 
f 217//217 218//218 218//218 
f 218//218 218//218 219//219 
f 218//218 220//220 219//219 
f 219//219 220//220 219//219 
f 220//220 221//221 219//219 
f 219//219 221//221 219//219 
f 221//221 222//222 219//219 
f 219//219 222//222 223//223 
f 222//222 223//223 223//223 
f 223//223 223//223 224//224 
f 223//223 224//224 224//224 
f 224//224 224//224 225//225 
f 224//224 226//226 225//225 
f 225//225 226//226 227//227 
f 226//226 228//228 227//227 
f 227//227 228//228 229//229 
f 228//228 229//229 229//229 
f 229//229 229//229 230//230 
f 229//229 230//230 230//230 
f 230//230 230//230 231//231 
f 230//230 232//232 231//231 
f 231//231 232//232 233//233 
f 232//232 233//233 233//233 
f 233//233 233//233 234//234 
f 233//233 234//234 234//234 
f 234//234 234//234 235//235 
f 234//234 236//236 235//235 
f 235//235 236//236 237//237 

